 <svg
    width="1920"
    height="518"
    viewBox="0 0 1920 518"
    fill="none"
    xmlns="http://www.w3.org/2000/svg"
  >
    <path
      fill-rule="evenodd"
      clip-rule="evenodd"
      d="M0 115L53 134C107 153 213 192 320 240C427 288 533 345 640 326C747 307 853 211 960 182C1067 153 1173 192 1280 240C1387 288 1493 345 1600 307C1707 268 1813 134 1867 67L1920 0V518H1867C1813 518 1707 518 1600 518C1493 518 1387 518 1280 518C1173 518 1067 518 960 518C853 518 747 518 640 518C533 518 427 518 320 518C213 518 107 518 53 518H0V115Z"
      fill="#FFB26B"
      fill-opacity="0.1"
    />
  </svg>