 <svg
    width="1920"
    height="324"
    viewBox="0 0 1920 324"
    fill="none"
    xmlns="http://www.w3.org/2000/svg"
  >
    <path
      fill-rule="evenodd"
      clip-rule="evenodd"
      d="M0 216L64 198C128 180 256 144 384 144C512 144 640 180 768 180C896 180 1024 144 1152 138C1280 132 1408 156 1536 192C1664 228 1792 276 1856 300L1920 324V0H1856C1792 0 1664 0 1536 0C1408 0 1280 0 1152 0C1024 0 896 0 768 0C640 0 512 0 384 0C256 0 128 0 64 0H0V216Z"
      fill="#FFB26B"
      fill-opacity="0.1"
    />
  </svg>